<svg width="10" height="10" viewBox="0 0 10 10" fill="none" xmlns="http://www.w3.org/2000/svg">
<path d="M9.75 4.875C9.75 5.41406 9.32812 5.8125 8.8125 5.8125H5.8125V8.8125C5.8125 9.35156 5.39062 9.75 4.875 9.75C4.33594 9.75 3.9375 9.35156 3.9375 8.8125V5.8125H0.9375C0.398438 5.8125 0 5.41406 0 4.875C0 4.35938 0.398438 3.9375 0.9375 3.9375H3.9375V0.9375C3.9375 0.421875 4.33594 0 4.875 0C5.39062 0 5.8125 0.421875 5.8125 0.9375V3.9375H8.8125C9.32812 3.9375 9.75 4.35938 9.75 4.875Z" fill="#57568E"/>
</svg>
