<svg width="23" height="21" viewBox="0 0 23 21" fill="none" xmlns="http://www.w3.org/2000/svg">
<path d="M4.375 5.9375C4.88281 5.9375 5.3125 6.36719 5.3125 6.875C5.3125 7.42188 4.88281 7.8125 4.375 7.8125C3.82812 7.8125 3.4375 7.42188 3.4375 6.875C3.4375 6.36719 3.82812 5.9375 4.375 5.9375ZM8.125 5.9375C8.63281 5.9375 9.0625 6.36719 9.0625 6.875C9.0625 7.42188 8.63281 7.8125 8.125 7.8125C7.57812 7.8125 7.1875 7.42188 7.1875 6.875C7.1875 6.36719 7.57812 5.9375 8.125 5.9375ZM12.1484 1.25C12.6953 1.25 13.125 1.67969 13.125 2.1875V11.6016C13.125 12.1094 12.6953 12.5391 12.1875 12.5391C11.6406 12.5391 11.25 12.1094 11.25 11.6016V10.8203C11.1328 10.8594 11.0547 10.9375 10.9766 10.9375L6.28906 19.1016C6.01562 19.5312 5.625 19.8438 5.11719 19.9609C4.64844 20.0781 4.14062 20 3.71094 19.7656L1.5625 18.5156C1.13281 18.2812 0.78125 17.8516 0.664062 17.3828C0.546875 16.9141 0.625 16.4062 0.859375 15.9766L3.59375 11.2109C1.5625 10.8203 0 9.0625 0 6.875C0 5.15625 1.01562 3.67188 2.5 2.96875V0.625C2.5 0.429688 2.57812 0.234375 2.77344 0.117188C2.96875 0 3.20312 0 3.39844 0.078125L7.5 2.5H9.375C10 2.53906 10.6641 2.65625 11.25 2.96875V2.1875C11.25 1.67969 11.6406 1.25 12.1484 1.25ZM4.64844 18.1641L8.63281 11.2891H5.74219L5.23438 12.1484L2.5 16.9141L4.64844 18.1641ZM11.25 8.51562V5.27344C10.7812 4.72656 10.0781 4.375 9.375 4.375H4.375C2.96875 4.375 1.875 5.50781 1.875 6.875C1.875 8.28125 2.96875 9.41406 4.375 9.41406H9.375C10.0781 9.375 10.7812 9.0625 11.25 8.51562ZM21.6406 4.64844H21.6797C21.8359 4.60938 22.0703 4.64844 22.2266 4.76562C22.3828 4.88281 22.5 5.03906 22.5 5.27344V8.51562C22.5 8.71094 22.3828 8.90625 22.2266 9.02344C22.0703 9.14062 21.8359 9.17969 21.6406 9.14062L18.75 8.125H16.25V10.3516C16.25 10.8594 15.8203 11.2891 15.3125 11.2891C14.7656 11.2891 14.375 10.8594 14.375 10.3516V3.4375C14.375 2.92969 14.7656 2.5 15.2734 2.5C15.8203 2.5 16.25 2.92969 16.25 3.4375V5.625H18.75L21.6406 4.64844Z" fill="#E84DD4"/>
</svg>
