<svg width="8" height="8" viewBox="0 0 8 8" fill="none" xmlns="http://www.w3.org/2000/svg">
<path d="M7.3125 5.97656C7.66406 6.35156 7.66406 6.9375 7.3125 7.3125C6.9375 7.66406 6.35156 7.66406 5.97656 7.3125L3.84375 5.15625L1.6875 7.3125C1.3125 7.66406 0.726562 7.66406 0.351562 7.3125C0 6.9375 0 6.35156 0.351562 5.97656L2.50781 3.82031L0.351562 1.6875C0 1.3125 0 0.726562 0.351562 0.351562C0.726562 0 1.3125 0 1.6875 0.351562L3.84375 2.50781L5.97656 0.351562C6.35156 0 6.9375 0 7.3125 0.351562C7.66406 0.726562 7.66406 1.3125 7.3125 1.6875L5.15625 3.82031L7.3125 5.97656Z" fill="#57568E"/>
</svg>
